<svg xmlns="http://www.w3.org/2000/svg" viewBox="0 0 900 650" role="img" aria-labelledby="title desc">
<title id="title">Френски макарони с българска роза</title>
<desc id="desc">Илюстрация на десерт от категория Сладки.</desc>
<defs>
<linearGradient id="bg" x1="0" y1="0" x2="1" y2="1"><stop offset="0" stop-color="#fff9f2"/><stop offset="1" stop-color="#e9d9dd"/></linearGradient>
<linearGradient id="halo" x1="0" y1="0" x2="1" y2="1"><stop offset="0" stop-color="#fff5f8"/><stop offset="1" stop-color="#f6c0d0"/></linearGradient>
</defs>
<rect width="900" height="650" rx="44" fill="url(#bg)"/>
<circle cx="690" cy="130" r="155" fill="url(#halo)" opacity=".52"/>
<circle cx="190" cy="115" r="95" fill="#fff5f8" opacity=".55"/>

        <ellipse cx="450" cy="560" rx="250" ry="34" fill="#000" opacity=".08"/>
        <g transform="translate(0,8)">
        <ellipse cx="330" cy="360" rx="105" ry="68" fill="#c86b85"/>
        <rect x="235" y="354" width="190" height="36" rx="18" fill="#fff5f8"/>
        <ellipse cx="330" cy="404" rx="105" ry="62" fill="#f6c0d0"/>
        <ellipse cx="570" cy="360" rx="105" ry="68" fill="#8c4660"/>
        <rect x="475" y="354" width="190" height="36" rx="18" fill="#fff5f8"/>
        <ellipse cx="570" cy="404" rx="105" ry="62" fill="#f6c0d0" opacity=".85"/>
        <ellipse cx="450" cy="468" rx="112" ry="69" fill="#c86b85" opacity=".92"/>
        <rect x="348" y="462" width="204" height="34" rx="17" fill="#fff5f8"/>
        <ellipse cx="450" cy="512" rx="112" ry="60" fill="#f6c0d0"/>
        </g>
        
<rect x="52" y="52" width="210" height="48" rx="24" fill="#fffdf9" opacity=".92"/>
<text x="157" y="83" text-anchor="middle" font-family="Arial, sans-serif" font-size="22" fill="#3d2b25">Сладки</text>
</svg>